<?xml version="1.0" encoding="UTF-8" standalone="no"?>
<svg width="224px" height="225px" viewBox="0 0 224 225" version="1.1" xmlns="http://www.w3.org/2000/svg" xmlns:xlink="http://www.w3.org/1999/xlink">
    <!-- Generator: Sketch 3.7.2 (28276) - http://www.bohemiancoding.com/sketch -->
    <title>Group 7</title>
    <desc>Created with Sketch.</desc>
    <defs>
        <linearGradient x1="50%" y1="11.4876302%" x2="50%" y2="100%" id="linearGradient-1">
            <stop stop-color="#00BCD4" stop-opacity="0.593551857" offset="0%"></stop>
            <stop stop-color="#00A2C8" offset="100%"></stop>
        </linearGradient>
    </defs>
    <g id="Page-1" stroke="none" stroke-width="1" fill="none" fill-rule="evenodd">
        <g id="Leet---Launch-Site-v3" transform="translate(-313.000000, -2679.000000)">
            <g id="Group-7" transform="translate(313.000000, 2679.000000)">
                <path d="M0,50.0046328 C0,22.3878367 22.3872276,0 49.9911671,0 L174.008833,0 C201.618192,0 224,22.3834968 224,50.0046328 L224,174.995367 C224,202.612163 201.612772,225 174.008833,225 L49.9911671,225 C22.3818079,225 0,202.616503 0,174.995367 L0,50.0046328 Z" id="Rectangle-258" fill="#00BCD4"></path>
                <path d="M0,50.0046328 C0,22.3878367 22.3872276,0 49.9911671,0 L174.008833,0 C201.618192,0 224,22.3834968 224,50.0046328 L224,174.995367 C224,202.612163 201.612772,225 174.008833,225 L49.9911671,225 C22.3818079,225 0,202.616503 0,174.995367 L0,50.0046328 Z" id="Rectangle-258" fill="url(#linearGradient-1)"></path>
                <g id="ic_leet" transform="translate(47.500000, 40.590200)" fill="#FFFFFF">
                    <path d="M120.081869,30.4651682 C111.209511,16.017887 97.2483905,5.89520003 80.7714978,1.96024147 C75.3189514,0.659244284 69.647171,0 63.914559,0 C59.3437677,0 54.7994771,0.423412157 50.4075664,1.25817345 C25.4160766,6.00617986 6.68179474,22.986093 1.51533695,45.5716936 C-3.79326168,68.7694927 5.99578455,88.127028 13.1492025,102.270924 C16.1142843,108.134157 20.1749346,116.163909 19.0715363,118.413663 C18.3415588,119.896209 16.1209095,122.593501 12.4240434,123.296173 C11.966904,123.383026 11.4959119,123.463245 10.9562586,123.548893 L10.6713746,123.598351 C8.00804096,124.104395 5.73800372,125.662335 4.27865105,127.985673 C2.82773046,130.295742 2.32481693,133.133569 2.86386796,135.975014 C3.80705669,140.960662 7.73700972,143.819599 13.6460931,143.819599 C15.0373868,143.819599 16.5660031,143.66278 18.1915882,143.353363 C18.4794836,143.297873 18.7727997,143.236955 19.0637065,143.165783 C47.0793027,136.44125 71.3125074,129.067123 84.6737454,124.399939 C110.586139,113.946122 122.259756,101.494669 127.745428,78.4573076 C131.675381,61.9605186 128.953625,44.9166714 120.081869,30.4651682 L120.081869,30.4651682 Z M120.506485,76.7268668 C115.547818,97.5554879 105.839479,107.827153 82.058595,117.425099 C68.943092,122.002413 45.0495799,129.26556 17.3254928,135.920731 C17.1429985,135.964158 16.9653224,136.00095 16.7954762,136.03352 C15.6312464,136.25548 14.5718154,136.367666 13.6448885,136.367666 C10.5123697,136.367666 10.2931355,135.209012 10.174484,134.58656 C9.82395029,132.736695 10.5924744,131.19866 11.9897911,130.931464 L12.1644557,130.901909 C12.7360304,130.810834 13.2811044,130.718551 13.8159394,130.617222 C19.9544959,129.450728 24.0055095,125.247367 25.7491439,121.702044 C28.4913778,116.113245 24.6505639,108.517158 19.7864565,98.8993088 C13.1504071,85.7795634 4.06122376,67.8116886 8.76813303,47.2357878 C13.2660471,27.5790896 29.7531788,12.7669019 51.7952464,8.57922296 C55.7571209,7.82588709 59.8406583,7.44409237 63.9332301,7.44409237 C69.0575274,7.44409237 74.1426759,8.03759317 79.0453299,9.20891284 C93.5888664,12.6818576 105.911151,21.6169397 113.74275,34.3681597 C121.573746,47.1242049 123.975685,62.1673995 120.506485,76.7268668 L120.506485,76.7268668 Z" id="Fill-1"></path>
                    <path d="M86.75,48.6080178 C89.6493882,48.6080178 92,50.9637302 92,53.8700113 C92,56.7756908 89.6493882,59.1314031 86.75,59.1314031 C83.8506118,59.1314031 81.5,56.7756908 81.5,53.8700113 C81.5,50.9637302 83.8506118,48.6080178 86.75,48.6080178" id="Fill-2"></path>
                    <path d="M77.2496998,69.1536748 C74.3504774,69.1536748 72,66.7979625 72,63.892283 C72,60.9860019 74.3504774,58.6302895 77.2496998,58.6302895 C80.1489222,58.6302895 82.5,60.9860019 82.5,63.892283 C82.5,66.7979625 80.1489222,69.1536748 77.2496998,69.1536748" id="Fill-3"></path>
                    <path d="M86.7496998,78.674833 C83.8504774,78.674833 81.5,76.3189859 81.5,73.4131403 C81.5,70.5072947 83.8504774,68.1514477 86.7496998,68.1514477 C89.6495226,68.1514477 92,70.5072947 92,73.4131403 C92,76.3189859 89.6495226,78.674833 86.7496998,78.674833" id="Fill-4"></path>
                    <path d="M96.7496998,69.1536748 C93.8501458,69.1536748 91.5,66.7979625 91.5,63.892283 C91.5,60.9860019 93.8501458,58.6302895 96.7496998,58.6302895 C99.6498542,58.6302895 102,60.9860019 102,63.892283 C102,66.7979625 99.6498542,69.1536748 96.7496998,69.1536748" id="Fill-5"></path>
                    <path d="M53.4642435,59.0950562 L47.5360567,59.0950562 L47.5360567,53.1537852 C47.5360567,50.6438043 45.505354,48.6080178 43.0003002,48.6080178 C40.4958469,48.6080178 38.4645438,50.6438043 38.4645438,53.1537852 L38.4645438,59.0950562 L32.5357565,59.0950562 C30.0313032,59.0950562 28,61.1302409 28,63.6408236 C28,66.1508045 30.0313032,68.186591 32.5357565,68.186591 L38.4645438,68.186591 L38.4645438,74.1302691 C38.4645438,76.64025 40.4958469,78.674833 43.0003002,78.674833 C45.505354,78.674833 47.5360567,76.6390465 47.5360567,74.1302691 L47.5360567,68.186591 L53.4642435,68.186591 C55.9686968,68.186591 58,66.1502028 58,63.6408236 C58,61.1314445 55.9686968,59.0950562 53.4642435,59.0950562" id="Fill-6"></path>
                </g>
            </g>
        </g>
    </g>
</svg>