<?xml version="1.0" encoding="UTF-8" standalone="no"?>
<svg width="44px" height="34px" viewBox="0 0 44 34" version="1.1" xmlns="http://www.w3.org/2000/svg" xmlns:xlink="http://www.w3.org/1999/xlink">
    <!-- Generator: Sketch 3.7.2 (28276) - http://www.bohemiancoding.com/sketch -->
    <title>Playstation</title>
    <desc>Created with Sketch.</desc>
    <defs></defs>
    <g id="Page-1" stroke="none" stroke-width="1" fill="none" fill-rule="evenodd">
        <g id="Leet---Launch-Site-v4" transform="translate(-700.000000, -1055.000000)" fill="#0046A0">
            <g id="brands" transform="translate(700.000000, 1054.000000)">
                <g id="Playstation" transform="translate(0.000000, 1.000000)">
                    <path d="M14.5548632,25.534 L13.1977263,26.01425 L11.7375158,26.588 L9.30454737,27.05125 L6.98109474,26.76225 C6.51082105,26.479625 6.39486316,26.1885 6.68690526,25.897375 C6.98109474,25.731625 7.3848,25.5 7.84433684,25.32575 L9.41406316,24.752 L14.5548632,22.952125 L14.5548632,18.850875 L13.1977263,19.29075 L4.76715789,22.2785 L3.31553684,22.85225 C1.11018947,23.772375 -0.0472421053,24.752 0.00214736842,25.616875 C0.120252632,26.877 1.57187368,27.79925 4.18736842,28.48775 C7.58450526,29.393 11.0331789,29.58425 14.5548632,29.0615 L14.5548632,25.534 L14.5548632,25.534 Z" id="Fill-1"></path>
                    <path d="M32.3629895,6.466375 C31.2055579,4.913 29.1677053,3.652875 26.1485053,2.61375 C22.3734316,1.411 19.2103579,0.53125 16.6528421,0 L16.6528421,31.195 L23.4728842,33.2605 L23.4728842,7.214375 C23.4728842,6.52375 23.5308632,6.066875 23.8250526,5.777875 C24.1192421,5.378375 24.4026947,5.321 24.8149895,5.48675 C25.7963368,5.777875 26.2666105,6.640625 26.2666105,8.077125 L26.2666105,18.544875 C28.4719579,19.573375 30.4518316,19.69025 31.9034526,18.59375 C33.4130526,17.56525 34.2269053,15.72075 34.2269053,12.96675 C34.2269053,10.09375 33.6471158,7.902875 32.3629895,6.466375 L32.3629895,6.466375 Z" id="Fill-2"></path>
                    <path d="M39.9217263,21.59 C37.3040842,20.72725 34.6864421,20.436125 32.2470316,20.553 C29.9901474,20.601875 27.6495158,21.009875 25.2423158,21.76425 L25.2423158,25.956875 L30.0395368,24.28875 L32.4810947,23.423875 C32.4810947,23.423875 33.4280842,23.20075 34.1088,23.0265 C35.1481263,22.752375 36.2561684,23.143375 36.2561684,23.143375 C36.8939368,23.19225 37.1859789,23.423875 37.3040842,23.715 C37.4221895,24.055 37.0098947,24.346125 36.1380632,24.63725 L33.9906947,25.442625 L25.2423158,28.562125 L25.2423158,32.637875 L29.3437895,31.1865 L39.1658526,27.741875 L40.3232842,27.2255 C42.6467368,26.36275 43.6968,25.442625 43.5786947,24.28875 C43.5207158,23.20075 42.2365895,22.338 39.9217263,21.59 L39.9217263,21.59 Z" id="Fill-3"></path>
                </g>
            </g>
        </g>
    </g>
</svg>