<?xml version="1.0" encoding="UTF-8" standalone="no"?>
<svg width="80px" height="80px" viewBox="0 0 80 80" version="1.1" xmlns="http://www.w3.org/2000/svg" xmlns:xlink="http://www.w3.org/1999/xlink">
    <!-- Generator: Sketch 3.7.2 (28276) - http://www.bohemiancoding.com/sketch -->
    <title>twitter_btn</title>
    <desc>Created with Sketch.</desc>
    <defs></defs>
    <g id="Page-1" stroke="none" stroke-width="1" fill="none" fill-rule="evenodd">
        <g id="Leet---Launch-Site-v4" transform="translate(-608.000000, -2957.000000)">
            <g id="Group-2" transform="translate(608.000000, 2957.000000)">
                <g id="twitter_btn">
                    <circle id="bg" fill="#50ABF1" cx="40" cy="40" r="40"></circle>
                    <path d="M39.4870332,32.0782796 C39.4870332,32.7114296 39.5596035,33.3278722 39.6994769,33.9192539 C32.8791836,33.5823709 26.8322909,30.3662109 22.7845934,25.4785982 C22.0782033,26.6718757 21.673653,28.0594478 21.673653,29.5400625 C21.673653,32.3425722 23.1224258,34.8154003 25.3244084,36.2640405 C23.9792238,36.2221282 22.7137789,35.8587439 21.6073741,35.2535355 C21.6067888,35.2873822 21.6066425,35.3210849 21.6066425,35.3552197 C21.6066425,39.2693426 24.4354219,42.5344724 28.1896192,43.276508 C27.5009327,43.4610087 26.7759611,43.5598124 26.0275796,43.5598124 C25.4986649,43.5598124 24.9845276,43.5091143 24.4835583,43.4149196 C25.5277808,46.6243102 28.5584696,48.960023 32.14953,49.025268 C29.3409415,51.1918912 25.8024068,52.4833962 21.9576429,52.4833962 C21.2952924,52.4833962 20.6420132,52.4450846 20,52.3706218 C23.6317349,54.6626939 27.9454259,56 32.579831,56 C47.674604,56 55.9288928,43.6903024 55.9288928,33.014898 C55.9288928,32.6647643 55.9208457,32.316359 55.9051904,31.96997 C57.5084678,30.8308473 58.8997403,29.4079882 60,27.7879538 C58.5282563,28.4304657 56.9467793,28.8648561 55.2865869,29.0600149 C56.9810161,28.060312 58.2823073,26.477149 58.894912,24.5906615 C57.3093383,25.5164778 55.5530195,26.1888036 53.6837485,26.5511797 C52.1868393,24.9809792 50.0539157,24 47.6936245,24 C43.1613446,24 39.4870332,27.6169918 39.4870332,32.0782796 Z" id="Imported-Layers-Copy" fill="#FFFFFF"></path>
                </g>
            </g>
        </g>
    </g>
</svg>