<?xml version="1.0" encoding="UTF-8" standalone="no"?>
<svg width="34px" height="34px" viewBox="0 0 34 34" version="1.1" xmlns="http://www.w3.org/2000/svg" xmlns:xlink="http://www.w3.org/1999/xlink">
    <!-- Generator: Sketch 3.7.2 (28276) - http://www.bohemiancoding.com/sketch -->
    <title>Imported Layers</title>
    <desc>Created with Sketch.</desc>
    <defs></defs>
    <g id="Page-1" stroke="none" stroke-width="1" fill="none" fill-rule="evenodd">
        <g id="Leet---Launch-Site-v4" transform="translate(-793.000000, -1054.000000)" fill="#027D00">
            <g id="brands" transform="translate(700.000000, 1054.000000)">
                <path d="M100.576216,2.88400241 C100.557688,2.89723482 100.544453,2.91509856 100.524601,2.92833097 C100.621876,2.82577984 100.764149,2.71528926 100.853484,2.65772831 C103.513001,0.928253128 106.590736,0 110.003309,0 C113.191553,0 116.186571,0.883262955 118.735578,2.41292884 C118.922188,2.52209617 119.424445,2.87077001 119.683846,3.18768608 C117.224173,0.470411956 109.985442,6.29597774 109.985442,6.29597774 C107.480771,4.36669326 105.183223,3.05205394 103.46668,2.58627333 C102.034683,2.19327093 101.041417,2.51547997 100.576216,2.88400241 L100.576216,2.88400241 Z M122.477034,5.45175037 C122.399611,5.36772461 122.314909,5.29031505 122.238809,5.20562766 C121.619424,4.52217401 120.851148,4.35544572 120.167575,4.39977427 C119.534955,4.59958357 116.637213,5.64494347 113.062515,9.01920644 C113.062515,9.01920644 117.083223,12.9287202 119.54819,16.9288758 C122.012495,20.9296931 123.482873,24.0710658 122.580926,28.4324661 C125.323161,25.4134932 127,21.4067213 127,17.0003308 C127,12.542334 125.283457,8.48461733 122.477034,5.45175037 L122.477034,5.45175037 Z M116.333476,18.6385024 C115.236979,17.4131818 113.617711,15.6572418 111.468392,13.5215318 C111.004515,13.0577361 110.507552,12.5734301 109.985442,12.0699371 C109.985442,12.0699371 109.203931,12.8513106 108.184858,13.8834381 C106.87462,15.2000623 105.183223,16.9222596 104.241573,17.9219677 C102.570027,19.7090039 97.7757493,25.316235 97.5050993,28.4576077 C97.5050993,28.4576077 96.4397042,25.9685925 98.7822499,20.219113 C100.311522,16.4584639 104.931763,10.8135204 106.861386,8.97355465 C106.861386,8.97355465 105.100506,7.03236101 102.886999,5.69654985 L102.873764,5.68993364 C102.873764,5.68993364 102.847295,5.67008504 102.809576,5.64494347 C101.743519,5.01243457 100.582834,4.52217401 99.4658233,4.45799685 C98.3243285,4.53540641 97.6023745,5.37434081 97.6023745,5.37434081 C94.7430128,8.41316235 93,12.5026368 93,17.0003308 C93,26.3860748 100.615921,34 110.003309,34 C114.98552,34 119.470767,31.8517192 122.580926,28.4390823 C122.580926,28.4324661 122.225574,26.1862655 119.934644,22.9740995 C119.399299,22.2191909 117.430634,19.8704392 116.333476,18.6385024 L116.333476,18.6385024 Z" id="Imported-Layers"></path>
            </g>
        </g>
    </g>
</svg>