<?xml version="1.0" encoding="UTF-8" standalone="no"?>
<svg width="60px" height="25px" viewBox="0 0 60 25" version="1.1" xmlns="http://www.w3.org/2000/svg" xmlns:xlink="http://www.w3.org/1999/xlink">
    <!-- Generator: Sketch 3.7.2 (28276) - http://www.bohemiancoding.com/sketch -->
    <title>youtube logo</title>
    <desc>Created with Sketch.</desc>
    <defs></defs>
    <g id="Page-1" stroke="none" stroke-width="1" fill="none" fill-rule="evenodd">
        <g id="Leet---Launch-Site-v4" transform="translate(-865.000000, -1059.000000)" fill="#D0021B">
            <g id="brands" transform="translate(700.000000, 1054.000000)">
                <g id="youtube-logo" transform="translate(165.000000, 5.000000)">
                    <path d="M22.3505976,20.2380952 L20.0796813,20.2380952 L20.0796813,18.9285714 C19.2187649,19.9114286 18.4889641,20.4078571 17.6934263,20.4078571 C16.9954183,20.4078571 16.510757,20.079881 16.268008,19.4872619 C16.1205179,19.1270238 16.0159363,18.5644048 16.0159363,17.7380952 L16.0159363,8.21428571 L18.2868526,8.21428571 L18.2868526,17.1428571 L18.2868526,17.9761905 C18.3398008,18.3103571 18.4822709,18.432381 18.7710359,18.432381 C19.2056175,18.432381 19.5989641,18.0561905 20.0796813,17.3809524 L20.0796813,8.21428571 L22.3505976,8.21428571 L22.3505976,20.2380952" id="Fill-1"></path>
                    <path d="M14.3426295,12.1428571 C14.3426295,10.8578571 14.083506,9.89309524 13.625498,9.28571429 C13.0205976,8.46333333 12.0717131,8.12666667 11.1155378,8.12666667 C10.0332669,8.12666667 9.20964143,8.46333333 8.60557769,9.28571429 C8.14027888,9.89309524 7.89071713,10.8683333 7.89071713,12.1533333 L7.88844622,16.4285714 C7.88844622,17.7061905 8.11039841,18.5890476 8.57569721,19.1905952 C9.17988048,20.0104762 10.1593625,20.4447619 11.1155378,20.4447619 C12.0717131,20.4447619 13.0684064,20.0104762 13.6733068,19.1905952 C14.1313147,18.5890476 14.3426295,17.7061905 14.3426295,16.4285714 L14.3426295,12.1428571 L14.3426295,12.1428571 Z M12.0717131,16.6666667 C12.1912351,17.8571429 11.8204781,18.4478571 11.1152988,18.4478571 C10.410239,18.4478571 10.0398406,17.8571429 10.1593625,16.6666667 L10.1593625,11.9047619 C10.0398406,10.7142857 10.4103586,10.1563095 11.1155378,10.1563095 C11.8207171,10.1563095 12.1924303,10.7142857 12.0729084,11.9047619 L12.0717131,16.6666667 L12.0717131,16.6666667 Z" id="Fill-2"></path>
                    <path d="M5.37848606,13.6904762 L5.37848606,20.2380952 L2.98804781,20.2380952 L2.98804781,13.6904762 C2.98804781,13.6904762 0.510956175,5.66297619 0,4.16666667 L2.50996016,4.16666667 L4.1874502,10.4375 L5.85657371,4.16666667 L8.36653386,4.16666667 L5.37848606,13.6904762" id="Fill-3"></path>
                    <path d="M45.7078088,10.1266667 C45.3515139,10.1266667 44.9434661,10.3139286 44.5816733,10.6696429 L44.5791633,17.8892857 C44.9410757,18.2497619 45.3515139,18.432381 45.7078088,18.432381 C46.3318327,18.432381 46.6135458,17.9761905 46.6135458,16.7857143 L46.6135458,11.6666667 C46.6135458,10.4761905 46.3318327,10.1266667 45.7078088,10.1266667" id="Fill-4"></path>
                    <path d="M54.6215139,11.5575 C54.6215139,10.4572619 54.3359761,10.1266667 53.6186056,10.1266667 C52.8958566,10.1266667 52.5896414,10.430119 52.5896414,11.5427381 L52.5896414,12.8594048 L54.6215139,12.8571429 L54.6215139,11.5575" id="Fill-5"></path>
                    <path d="M59.5268127,5.4652381 C59.5268127,5.4652381 59.1780478,3.02654762 58.1079681,1.9525 C56.7509163,0.543214286 55.2294024,0.536071429 54.5318725,0.453571429 C49.5376494,0.0957142857 42.0460159,0.0957142857 42.0460159,0.0957142857 L42.0303586,0.0957142857 C42.0303586,0.0957142857 34.5386056,0.0957142857 29.5442629,0.453571429 C28.8466135,0.536071429 27.3256972,0.543214286 25.9682869,1.9525 C24.8980876,3.02654762 24.5498008,5.4652381 24.5498008,5.4652381 C24.5498008,5.4652381 24.1929084,8.32880952 24.1929084,11.1927381 L24.1929084,13.877619 C24.1929084,16.7413095 24.5498008,19.605 24.5498008,19.605 C24.5498008,19.605 24.8980876,22.0435714 25.9682869,23.117619 C27.3256972,24.5272619 29.1094422,24.482381 29.9035458,24.630119 C32.7588048,24.9019048 42.0381275,24.9858333 42.0381275,24.9858333 C42.0381275,24.9858333 49.5376494,24.9746429 54.5318725,24.6167857 C55.2294024,24.5342857 56.7509163,24.5272619 58.1079681,23.117619 C59.1780478,22.0435714 59.5268127,19.605 59.5268127,19.605 C59.5268127,19.605 59.8832271,16.7413095 59.8832271,13.877619 L59.8832271,11.1927381 C59.8832271,8.32880952 59.5268127,5.4652381 59.5268127,5.4652381 L59.5268127,5.4652381 Z M32.0318725,20.2380952 L29.6414343,20.2380952 L29.6414343,6.54761905 L27.1314741,6.54761905 L27.1314741,4.28821429 L34.6613546,4.28571429 L34.6613546,6.54761905 L32.0318725,6.54761905 L32.0318725,20.2380952 L32.0318725,20.2380952 Z M40.6374502,20.2380952 L38.3665339,20.2380952 L38.3665339,18.9285714 C37.5056175,19.9114286 36.7758167,20.4078571 35.9802789,20.4078571 C35.2822709,20.4078571 34.7976096,20.079881 34.5548606,19.4872619 C34.4073705,19.1270238 34.3027888,18.5644048 34.3027888,17.7380952 L34.3027888,8.33333333 L36.5737052,8.33333333 L36.5737052,17.1428571 L36.5737052,17.9761905 C36.6266534,18.3103571 36.7691235,18.432381 37.0578884,18.432381 C37.4924701,18.432381 37.8858167,18.0561905 38.3665339,17.3809524 L38.3665339,8.33333333 L40.6374502,8.33333333 L40.6374502,20.2380952 L40.6374502,20.2380952 Z M48.8844622,16.6666667 C48.8844622,17.7669048 48.7899203,18.5433333 48.6454183,19.047619 C48.3566534,19.9321429 47.727012,20.3915476 46.8653785,20.3915476 C46.0960159,20.3915476 45.3076494,19.9304762 44.5846614,19.0395238 L44.5816733,20.2380952 L42.4302789,20.2380952 L42.4302789,4.28571429 L44.5816733,4.28571429 L44.5791633,9.48654762 C45.2781275,8.63 46.0693625,8.14238095 46.8653785,8.14238095 C47.727012,8.14238095 48.3062151,8.63809524 48.5949801,9.52904762 C48.7394821,10.007619 48.8844622,10.7779762 48.8844622,11.9047619 L48.8844622,16.6666667 L48.8844622,16.6666667 Z M53.6386853,18.432381 C54.1713944,18.432381 54.4819124,18.1438095 54.6053785,17.567619 C54.6254582,17.4502381 54.6216335,16.9361905 54.6216335,16.0714286 L56.8924303,16.0714286 L56.8924303,16.4088095 C56.8924303,17.1033333 56.8349402,17.594881 56.8155777,17.8105952 C56.7425498,18.2884524 56.5725896,18.7207143 56.3095219,19.1020238 C55.7109562,19.9658333 54.8229084,20.3915476 53.6924701,20.3915476 C52.5604781,20.3915476 51.6988446,19.9858333 51.0732669,19.1729762 C50.6135857,18.5777381 50.3187251,17.6927381 50.3187251,16.4285714 L50.3187251,12.2619048 C50.3187251,10.9904762 50.5869323,10.007619 51.0466135,9.40583333 C51.6724303,8.59178571 52.5340637,8.16095238 53.6386853,8.16095238 C54.7241833,8.16095238 55.5858167,8.59178571 56.1923904,9.40583333 C56.6447809,10.007619 56.8961355,10.937619 56.8961355,12.2091667 L56.8966135,14.6428571 L52.5896414,14.6428571 L52.5896414,16.7807143 C52.5821116,17.8791667 52.8958566,18.432381 53.6386853,18.432381 L53.6386853,18.432381 Z" id="Fill-6"></path>
                </g>
            </g>
        </g>
    </g>
</svg>